<svg id="Layer_1" enable-background="new 0 0 68 68" viewBox="0 0 68 68" xmlns="http://www.w3.org/2000/svg"><g><g><path d="m62.11442 26.00151s3.22003 2.01001.77002 3.47009c-2.23999 1.29993-3.78003-1.74011-7.09003-1.30005-.32996.04004-.67999.12-1.04999.23999-.58002.18994-1.03998.43994-1.39001.73999h-.00995c-1.04004.84998-1.16003 2.04004-1.03003 3.02002.12.94995.60999 1.80994 1.25 2.52002 4.62 5.09998 9.51001 14.16992 4.22998 20.67993-5.54999 6.84009-21.02997 7.73999-33.60999 6.06006-9.62-1.31006-14.66998-5.95007-14.17999-13.16003.15997-2.22998.84003-4.69006 2.08002-7.39001 1.13-2.46997 2.83997-4.25 4.82001-5.51001 6.95996-4.44995 17.25995-2.62 17.85998-2.52002-9.89001-4.56995-8.04999-14.6499-8.04999-14.6499-2.83002-.48999-2.88-2.39014-2.88-2.39014 1.51996.63013 2.59998-1.03992 2.59998-1.03992-4.09998-1.39001-3.14996-6.04993-3.14996-6.04993s1.63995 1.20996 4.87 1.94995c3.25.72998 2.72998-4.17004 12.48999-4.80005 8.75-.57007 12.39001 6.17993 15.39001 11.30005 3.14996 5.38989 8.48999.6499 8.48999.6499 3.51 4.86012-2.41004 8.18006-2.41004 8.18006z" fill="#ffeb33"/></g><g><path d="m53.87443 35.04155c4.52002 5.15002 9.08002 13.95996 3.91998 20.32996-5.54999 6.84009-21.02997 7.73999-33.60999 6.06006-6.96997-.95007-11.53998-3.64001-13.33997-7.80005 2.39996 2.05005 5.94995 3.42993 10.52997 4.05005 12.58002 1.67993 28.06.78003 33.60999-6.06006 4.06-5 2.11005-11.52002-1.10998-16.57996z" fill="#f9df21"/></g><g><path d="m16.90446 35.37151c-1.98004 1.26001-3.69 3.04004-4.82001 5.51001-1.23999 2.69995-1.92004 5.16003-2.08002 7.39001-8.42999-2.29004-7.62-11.22998-7.62-11.22998 1.15997.90002 2.51001 1.32996 4.27002.78992-3.53003-5.26001-1.24005-9.86987-1.24005-9.86987 4.10004 7.06994 11.02003 7.3999 11.49006 7.40991z" fill="#f9df21"/></g><g><path d="m10.68443 44.59148c-.37 1.29004-.59998 2.52002-.67999 3.68005-8.42999-2.29004-7.62-11.22998-7.62-11.22998.64001.5 1.33002.84998 2.11999.96997.72998 2.43006 2.40003 5.22998 6.18 6.57996z" fill="#f2d211"/></g><g><path d="m36.01253 56.46087c-12.90003.0299-16.91003-9.13013-16.91003-9.13013 1.30005.6001 5.58002 1.59009 6.72003.04004 0 0-4.84003-2.06006-3.60999-5.77002 0 0 7.09998 2.55005 13.88995-.94995 6.80005-3.5 12.96002-1.65002 13.65002 4.3999.70002 6.05005-2.2 11.39014-13.73998 11.41016z" fill="#fcb910"/></g><g><path d="m36.01444 56.4616c-7.45001.0199-11.94-3.03003-14.39001-5.61011 2.60999 1.69995 6.28998 3.08008 11.31 3.07007 11.53998-.02002 14.44-5.36011 13.73999-11.41003-.13995-1.20007-.48999-2.22998-1.01996-3.08997 2.23999.87 3.76996 2.78003 4.09998 5.62988.7 6.05005-2.20002 11.39014-13.74 11.41016z" fill="#f4a800"/></g><g><path d="m62.11442 26.00151c-2.09998 1.31995-3.33997 1.71008-6.32001 2.17004-.32996.04004-.67999.12-1.04999.23999-.58002.18994-1.03998.43994-1.39001.73999h-.00995c-5-2.42993.72998-6.94995.72998-6.94995-.59003-3.41003 1.96002-5.03003 1.96002-5.03003 3.14996 5.38989 8.48999.6499 8.48999.6499 3.51001 4.86012-2.41003 8.18006-2.41003 8.18006z" fill="#ff4848"/></g><g><path d="m62.88632 29.46741c-2.2401 1.30073-3.77824-1.73434-7.09199-1.30072 2.9834-.45416 4.22219-.84644 6.31775-2.16783.00001-.00001 3.22088 2.01295.77424 3.46855z" fill="#f91c1c"/></g><g><path d="m48.16253 15.63225c0 1.53587-.97003 2.76855-2.17244 2.76855s-2.17237-1.23269-2.17237-2.76855c0-1.52575.96997-2.75844 2.17237-2.75844s2.17244 1.23269 2.17244 2.75844z" fill="#666"/></g><g><path d="m47.57444 13.73149h-.03003c-1.20996 0-2.17999 1.2301-2.17999 2.75 0 .75.23004 1.43005.60999 1.92004-1.19995-.01001-2.15997-1.23999-2.15997-2.77002s.97003-2.76001 2.17999-2.76001c.61999.00001 1.17999.33009 1.58001.85999z" fill="#595857"/></g><g><path d="m31.54154 20.83904c-.36719 0-.68848-.27051-.74121-.64453-.25-1.7627.10547-3.58594 1.00098-5.13476.89355-1.54395 2.30664-2.78516 3.97754-3.49316.38086-.16406.82227.0166.9834.39746.16211.38184-.0166.82227-.39746.9834-1.37402.58203-2.5332 1.59961-3.26465 2.86426-.72852 1.25879-1.01758 2.74121-.81543 4.17187.05859.41016-.22656.79004-.63672.84766-.03613.00584-.07129.0078-.10645.0078z" fill="#fff"/></g></g></svg>